<?xml version="1.0" encoding="UTF-8" standalone="no"?>
<!-- Created with Inkscape (http://www.inkscape.org/) -->

<svg
   xmlns:dc="http://purl.org/dc/elements/1.1/"
   xmlns:cc="http://creativecommons.org/ns#"
   xmlns:rdf="http://www.w3.org/1999/02/22-rdf-syntax-ns#"
   xmlns:svg="http://www.w3.org/2000/svg"
   xmlns="http://www.w3.org/2000/svg"
   xmlns:sodipodi="http://sodipodi.sourceforge.net/DTD/sodipodi-0.dtd"
   xmlns:inkscape="http://www.inkscape.org/namespaces/inkscape"
   id="svg3063"
   version="1.1"
   inkscape:version="0.48.5 r10040"
   width="200"
   height="200"
   sodipodi:docname="logo.svg">
  <metadata
     id="metadata3069">
    <rdf:RDF>
      <cc:Work
         rdf:about="">
        <dc:format>image/svg+xml</dc:format>
        <dc:type
           rdf:resource="http://purl.org/dc/dcmitype/StillImage" />
        <dc:title />
      </cc:Work>
    </rdf:RDF>
  </metadata>
  <defs
     id="defs3067" />
  <sodipodi:namedview
     pagecolor="#ffffff"
     bordercolor="#666666"
     borderopacity="1"
     objecttolerance="10"
     gridtolerance="10"
     guidetolerance="10"
     inkscape:pageopacity="0"
     inkscape:pageshadow="2"
     inkscape:window-width="1680"
     inkscape:window-height="973"
     id="namedview3065"
     showgrid="false"
     inkscape:zoom="2.744186"
     inkscape:cx="185.75296"
     inkscape:cy="93.824263"
     inkscape:window-x="0"
     inkscape:window-y="24"
     inkscape:window-maximized="1"
     inkscape:current-layer="g3945"
     fit-margin-top="0"
     fit-margin-left="0"
     fit-margin-right="0"
     fit-margin-bottom="0" />
  <g
     id="g3945"
     transform="matrix(0.24216112,0,0,0.24216112,14.222938,14.613711)">
    <path
       inkscape:connector-curvature="0"
       id="path3079"
       d="m 179.87331,686.20979 c -15.26214,-5.06524 -25.81559,-14.18461 -32.3857,-27.98492 -3.72376,-7.82166 -4.19231,-10.16852 -4.19231,-20.9985 0,-10.82998 0.46855,-13.17684 4.19231,-20.99848 5.32812,-11.19154 13.74309,-19.60651 24.93462,-24.93463 7.82636,-3.72601 10.16516,-4.19231 21.02698,-4.19231 11.07959,0 13.06647,0.41615 21.27073,4.45509 6.23973,3.07181 11.31883,6.96271 16.35817,12.53136 l 7.30859,8.07626 32.04533,0 32.04536,0 0,-19.52467 0,-19.52466 -5.75766,-0.91873 C 244.69469,563.89412 207.62394,553.23441 176.48645,537.62249 117.10849,507.85115 76.253114,463.12225 59.57797,409.62986 51.144721,382.5767 48.683995,341.06936 53.795299,312.08849 62.398176,263.3107 87.212726,222.97356 129.25996,189.41744 c 40.74826,-32.51949 80.8647,-48.9588 146.97779,-60.23006 11.07882,-1.88877 21.53117,-3.74149 23.22749,-4.11718 3.05986,-0.67767 3.08123,-0.84039 2.70948,-20.63064 l -0.37471,-19.947584 -37.25538,-0.677371 -37.25537,-0.67737 0,-21.67586 0,-21.675858 109.37658,-0.346691 109.37658,-0.346693 3.28815,-6.488843 c 4.65159,-9.179456 13.59084,-17.61253 23.8442,-22.493988 7.82637,-3.7260121 10.16516,-4.1923141 21.02698,-4.1923141 11.06867,0 13.07084,0.4182763 21.23113,4.4355721 11.26657,5.546513 21.38309,16.230815 25.62831,27.066699 4.55369,11.623421 4.34668,28.094852 -0.4854,38.609161 -4.98288,10.84259 -15.40572,21.45364 -25.78019,26.24566 -7.30801,3.37566 -10.05204,3.89375 -20.62234,3.89375 -10.81235,0 -13.18957,-0.47276 -20.99849,-4.17604 -5.29306,-2.510158 -11.54852,-6.978841 -15.68131,-11.202165 l -6.87549,-7.026121 -31.73463,0.364235 -31.73463,0.364237 -0.3747,19.947584 c -0.37168,19.78677 -0.34985,19.9532 2.70948,20.64455 1.6963,0.38334 10.7046,1.95873 20.01845,3.50087 59.53508,9.85754 94.27257,22.38099 131.48474,47.40236 53.99782,36.308 84.2103,80.15425 94.24826,136.77852 3.0964,17.46639 3.10168,54.2842 0.0135,71.80128 -9.26154,52.48126 -36.19041,93.93678 -83.97552,129.27553 -40.01147,29.58983 -87.13224,46.87872 -159.04073,58.35293 l -5.75764,0.91873 0,19.52466 0,19.52467 36.23933,0.0207 c 19.93162,0.0114 37.01781,0.5148 37.96931,1.11861 1.30885,0.83061 1.63863,6.1846 1.35474,21.9938 l -0.37579,20.89596 -110.71939,0.3466 -110.71939,0.34659 -2.23211,4.31641 c -4.17052,8.06491 -15.09675,18.17348 -23.94549,22.15352 -9.95232,4.47643 -25.39474,5.7662 -34.16978,2.85392 z m 22.73543,-24.39098 c 5.77139,-2.41612 13.99889,-11.68496 15.19132,-17.11405 1.86796,-8.50476 -0.43857,-16.40792 -6.5814,-22.55075 -9.65456,-9.65457 -21.35866,-10.78591 -31.98068,-3.09135 -12.24569,8.87071 -13.86338,24.45563 -3.73576,35.99035 7.20369,8.20455 17.51937,10.77936 27.10652,6.7658 z m 99.53736,-242.4799 c 0.19876,-68.20776 -0.16408,-118.76572 -0.85234,-118.76572 -0.65914,0 -4.7775,1.67649 -9.15191,3.72554 -6.82963,3.19911 -9.67632,3.72554 -20.14615,3.72554 -10.82997,0 -13.17682,-0.46855 -20.99848,-4.19231 -11.19152,-5.32812 -19.6065,-13.7431 -24.93462,-24.93462 -3.72376,-7.82166 -4.19231,-10.16852 -4.19231,-20.9985 0,-10.82998 0.46855,-13.17683 4.19231,-20.99848 5.32812,-11.19154 13.7431,-19.60651 24.93462,-24.93463 7.82166,-3.72376 10.16851,-4.19231 20.99848,-4.19231 10.46983,0 13.31652,0.52643 20.14615,3.72553 4.37441,2.04905 8.48945,3.72555 9.1445,3.72555 0.65508,0 1.19104,-12.80231 1.19104,-28.44956 l 0,-28.44957 -3.72554,0.001 c -2.04905,9.8e-4 -9.82188,1.48343 -17.27296,3.29436 -38.01454,9.23916 -70.78565,26.11977 -92.11478,47.44891 -29.65536,29.65574 -45.39144,77.8472 -45.39144,139.01088 0,100.57387 42.45966,163.06514 125.23807,184.32289 12.5758,3.2295 29.25428,6.43227 31.23453,5.99797 0.88738,-0.19463 1.47414,-41.26915 1.70083,-119.06283 z m 96.51791,117.61535 c 9.8089,-1.44259 31.16231,-7.04254 41.06021,-10.7681 53.63073,-20.18655 85.94305,-58.5041 98.94829,-117.33767 10.01642,-45.31251 7.84761,-102.48929 -5.41734,-142.8212 -13.20371,-40.14522 -37.09374,-67.15709 -77.01466,-87.07833 -18.39803,-9.18095 -55.0221,-20.61664 -66.04363,-20.62184 l -3.72554,-0.001 0,115.15301 c 0,63.33415 0.23637,115.153 0.52527,115.153 0.2889,0 4.70874,-1.98131 9.82188,-4.40291 8.35078,-3.95498 10.53994,-4.40291 21.51775,-4.40291 11.0687,0 13.07081,0.41827 21.23109,4.43557 11.26655,5.54652 21.38307,16.23082 25.62829,27.06669 4.55376,11.62344 4.34671,28.09486 -0.48533,38.60917 -4.98291,10.8426 -15.40575,21.45364 -25.78016,26.24566 -7.30808,3.37566 -10.05204,3.89376 -20.62238,3.89376 -10.94567,0 -13.14346,-0.4503 -21.48926,-4.40292 -5.11314,-2.42159 -9.53298,-4.4029 -9.82188,-4.4029 -0.94011,0 -0.55287,65.90314 0.3928,66.84879 0.50492,0.50494 1.8766,0.65108 3.04817,0.32476 1.17154,-0.32631 4.87344,-0.99677 8.22643,-1.48988 z m 28.83176,-82.41084 c 5.7714,-2.41614 13.9989,-11.68496 15.19132,-17.11406 1.86796,-8.50475 -0.43856,-16.40792 -6.5814,-22.55074 -9.65456,-9.65457 -21.35865,-10.78592 -31.98068,-3.09135 -12.24568,8.87071 -13.86337,24.45563 -3.73575,35.99033 7.20368,8.20456 17.51937,10.77937 27.10651,6.76582 z M 281.18372,282.49128 c 5.7714,-2.41612 13.9989,-11.68495 15.19133,-17.11405 1.86796,-8.50475 -0.43857,-16.40792 -6.5814,-22.55075 -9.65457,-9.65457 -21.35866,-10.7859 -31.98068,-3.09135 -12.24569,8.87071 -13.86338,24.45563 -3.73576,35.99035 7.20368,8.20456 17.51937,10.77937 27.10651,6.7658 z M 503.36132,80.634852 c 5.77133,-2.416127 13.99881,-11.684955 15.19126,-17.114053 1.86805,-8.504753 -0.43853,-16.407906 -6.58134,-22.55075 -9.65457,-9.65455 -21.35869,-10.785908 -31.98073,-3.091344 -12.24568,8.870723 -13.86338,24.455626 -3.73574,35.990338 7.20368,8.204557 17.51935,10.779365 27.10655,6.765809 z"
       style="fill:#ffffff" />
  </g>
</svg>
