<?xml version="1.0" encoding="UTF-8" standalone="no"?>
<!-- Created with Inkscape (http://www.inkscape.org/) -->

<svg
   xmlns:dc="http://purl.org/dc/elements/1.1/"
   xmlns:cc="http://creativecommons.org/ns#"
   xmlns:rdf="http://www.w3.org/1999/02/22-rdf-syntax-ns#"
   xmlns:svg="http://www.w3.org/2000/svg"
   xmlns="http://www.w3.org/2000/svg"
   xmlns:sodipodi="http://sodipodi.sourceforge.net/DTD/sodipodi-0.dtd"
   xmlns:inkscape="http://www.inkscape.org/namespaces/inkscape"
   id="svg3063"
   version="1.1"
   inkscape:version="0.48.5 r10040"
   width="50"
   height="50"
   sodipodi:docname="logo.svg">
  <metadata
     id="metadata3069">
    <rdf:RDF>
      <cc:Work
         rdf:about="">
        <dc:format>image/svg+xml</dc:format>
        <dc:type
           rdf:resource="http://purl.org/dc/dcmitype/StillImage" />
        <dc:title />
      </cc:Work>
    </rdf:RDF>
  </metadata>
  <defs
     id="defs3067" />
  <sodipodi:namedview
     pagecolor="#ffffff"
     bordercolor="#666666"
     borderopacity="1"
     objecttolerance="10"
     gridtolerance="10"
     guidetolerance="10"
     inkscape:pageopacity="0"
     inkscape:pageshadow="2"
     inkscape:window-width="1680"
     inkscape:window-height="973"
     id="namedview3065"
     showgrid="false"
     inkscape:zoom="10.976744"
     inkscape:cx="60.654349"
     inkscape:cy="24.915366"
     inkscape:window-x="0"
     inkscape:window-y="24"
     inkscape:window-maximized="1"
     inkscape:current-layer="svg3063"
     fit-margin-top="0"
     fit-margin-left="0"
     fit-margin-right="0"
     fit-margin-bottom="0" />
  <g
     id="g3945"
     transform="matrix(0.06481353,0,0,0.06481353,2.4677628,2.3002848)">
    <rect
       ry="99.118645"
       y="3.2542369"
       x="3.4576273"
       height="698.20337"
       width="696.74579"
       id="rect3081"
       style="fill:#00bd64;fill-opacity:1;stroke:#ffffff;stroke-width:1.54400003;stroke-linejoin:bevel;stroke-miterlimit:4;stroke-opacity:1;stroke-dasharray:none;stroke-dashoffset:0" />
    <path
       inkscape:connector-curvature="0"
       id="path3079"
       d="m 228.99342,604.38194 c -11.26572,-3.7389 -19.05573,-10.47035 -23.90545,-20.65703 -2.74869,-5.77354 -3.09455,-7.50587 -3.09455,-15.5 0,-7.99413 0.34586,-9.72646 3.09455,-15.5 3.93294,-8.26101 10.14444,-14.47251 18.40545,-18.40545 5.77702,-2.75035 7.50339,-3.09455 15.52103,-3.09455 8.17838,0 9.64499,0.30718 15.70095,3.28852 4.60585,2.26745 8.35498,5.13951 12.07476,9.25 l 5.39483,5.96148 23.65421,0 23.65422,0 0,-14.4121 0,-14.4121 -4.25,-0.67816 c -38.4022,-6.12772 -65.76592,-13.99617 -88.75,-25.52008 -43.82975,-21.97567 -73.98708,-54.99223 -86.29581,-94.47756 -6.22499,-19.96924 -8.04137,-50.60782 -4.26847,-72 6.3502,-36.00525 24.66702,-65.78004 55.70412,-90.54944 30.07826,-24.0042 59.69014,-36.13886 108.49142,-44.45872 8.17781,-1.39419 15.8932,-2.76178 17.14533,-3.03909 2.25863,-0.50022 2.2744,-0.62033 2,-15.22847 l -0.27659,-14.72428 -27.5,-0.5 -27.5,-0.5 0,-16 0,-16 80.73615,-0.25591 80.73615,-0.25591 2.42714,-4.78973 c 3.43356,-6.7758 10.03206,-13.00066 17.60056,-16.6039 5.77702,-2.75035 7.50339,-3.09455 15.52103,-3.09455 8.17032,0 9.64822,0.30875 15.67172,3.27411 8.3164,4.09415 15.7839,11.98075 18.9175,19.97924 3.3613,8.57981 3.2085,20.73817 -0.3583,28.49929 -3.6781,8.00344 -11.3717,15.83597 -19.0296,19.37319 -5.3944,2.49174 -7.4199,2.87417 -15.22235,2.87417 -7.98112,0 -9.73586,-0.34897 -15.5,-3.08254 -3.90707,-1.85287 -8.52453,-5.15142 -11.57513,-8.26886 l -5.07514,-5.18632 -23.42486,0.26886 -23.42487,0.26886 -0.27659,14.72428 c -0.27435,14.60557 -0.25823,14.72842 2,15.23874 1.25213,0.28296 7.90159,1.44583 14.77659,2.58416 43.94572,7.27633 69.58715,16.52049 97.05525,34.98997 39.8584,26.8007 62.1597,59.16573 69.5692,100.96285 2.2856,12.89278 2.2895,40.06979 0.01,53 -6.8364,38.73895 -26.7139,69.33928 -61.9864,95.42452 -29.5344,21.84168 -64.31652,34.60345 -117.39565,43.07312 l -4.25,0.67816 0,14.4121 0,14.4121 26.75,0.0153 c 14.7125,0.008 27.32464,0.37999 28.02699,0.8257 0.96612,0.61311 1.20955,4.56515 1,16.23468 l -0.27739,15.42432 -81.72734,0.25584 -81.72734,0.25584 -1.64762,3.18615 c -3.07847,5.9531 -11.14365,13.41472 -17.67533,16.35258 -7.34629,3.30427 -18.74509,4.25632 -25.22237,2.10662 z m 16.78212,-18.00416 c 4.26015,-1.78346 10.33326,-8.62523 11.21345,-12.63271 1.37883,-6.27777 -0.32373,-12.11148 -4.85805,-16.6458 -7.1265,-7.1265 -15.76586,-7.9616 -23.60649,-2.28187 -9.03913,6.5479 -10.23323,18.05188 -2.75754,26.56621 5.31739,6.05618 12.93189,7.95677 20.00863,4.99417 z m 73.47334,-178.98615 c 0.14672,-50.34745 -0.12111,-87.66672 -0.62915,-87.66672 -0.48655,0 -3.5265,1.2375 -6.75547,2.75 -5.04128,2.36142 -7.14256,2.75 -14.87084,2.75 -7.99413,0 -9.72646,-0.34586 -15.5,-3.09455 -8.26101,-3.93294 -14.47251,-10.14444 -18.40545,-18.40545 -2.74869,-5.77354 -3.09455,-7.50587 -3.09455,-15.5 0,-7.99413 0.34586,-9.72646 3.09455,-15.5 3.93294,-8.26101 10.14444,-14.47251 18.40545,-18.40545 5.77354,-2.74869 7.50587,-3.09455 15.5,-3.09455 7.72828,0 9.82956,0.38858 14.87084,2.75 3.22897,1.5125 6.26647,2.75 6.75,2.75 0.48354,0 0.87916,-9.45 0.87916,-21 l 0,-21 -2.75,0.001 c -1.5125,7.2e-4 -7.25,1.09499 -12.75,2.43173 -28.06037,6.81987 -52.25032,19.28026 -67.99438,35.02433 -21.89006,21.89034 -33.50562,57.46279 -33.50562,102.61066 0,74.23844 31.34153,120.36627 92.44428,136.05764 9.2828,2.38385 21.594,4.74797 23.05572,4.42739 0.65502,-0.14366 1.08813,-30.46275 1.25546,-87.88603 z m 71.24454,86.81758 c 7.24043,-1.06484 23.00241,-5.19844 30.30853,-7.94845 39.58743,-14.90067 63.43872,-43.18471 73.03852,-86.61261 7.3936,-33.44736 5.7927,-75.65231 -3.9988,-105.42324 -9.7463,-29.63313 -27.38069,-49.5719 -56.84825,-64.27673 -13.58048,-6.7769 -40.61447,-15.21814 -48.75,-15.22198 l -2.75,-0.001 0,85 c 0,46.75 0.17448,85 0.38773,85 0.21325,0 3.47575,-1.4625 7.25,-3.25 6.16412,-2.91936 7.78004,-3.25 15.8833,-3.25 8.17034,0 9.64819,0.30875 15.67169,3.27411 8.31639,4.09415 15.78388,11.98075 18.91748,19.97923 3.36135,8.57982 3.20852,20.73818 -0.35824,28.4993 -3.67813,8.00344 -11.37173,15.83597 -19.02959,19.37319 -5.39444,2.49174 -7.41989,2.87417 -15.22237,2.87417 -8.07953,0 -9.70183,-0.33239 -15.86227,-3.25 -3.77425,-1.7875 -7.03675,-3.25 -7.25,-3.25 -0.69394,0 -0.4081,48.6463 0.28994,49.34433 0.37271,0.37272 1.38521,0.48059 2.25,0.23972 0.86478,-0.24087 3.59733,-0.73576 6.07233,-1.09975 z m 21.28212,-60.83143 c 4.26015,-1.78346 10.33326,-8.62523 11.21345,-12.63271 1.37883,-6.27777 -0.32373,-12.11148 -4.85805,-16.6458 -7.1265,-7.1265 -15.76586,-7.9616 -23.60649,-2.28187 -9.03913,6.5479 -10.23323,18.05188 -2.75754,26.56621 5.31739,6.05618 12.93189,7.95677 20.00863,4.99417 z m -108,-127 c 4.26015,-1.78346 10.33326,-8.62523 11.21345,-12.63271 1.37883,-6.27777 -0.32373,-12.11148 -4.85805,-16.6458 -7.1265,-7.1265 -15.76586,-7.9616 -23.60649,-2.28187 -9.03913,6.5479 -10.23323,18.05188 -2.75754,26.56621 5.31739,6.05618 12.93189,7.95677 20.00863,4.99417 z m 164.00003,-149 c 4.2601,-1.78346 10.3332,-8.62523 11.2134,-12.63271 1.3789,-6.27777 -0.3237,-12.11147 -4.858,-16.6458 -7.1265,-7.12649 -15.76589,-7.9616 -23.60652,-2.28187 -9.03913,6.54791 -10.23323,18.05188 -2.75754,26.56621 5.31739,6.05618 12.93189,7.95677 20.00866,4.99417 z"
       style="fill:#ffffff" />
  </g>
</svg>
